<svg width="6" height="6" viewBox="0 0 6 6" fill="none" xmlns="http://www.w3.org/2000/svg">
<path d="M1.08062 0.859119C0.973128 0.75163 0.973128 0.577356 1.08062 0.469868L1.46987 0.0806165C1.57736 -0.0268722 1.75163 -0.0268722 1.85912 0.0806165L4.58388 2.80537C4.69137 2.91286 4.69137 3.08714 4.58388 3.19463L4.19463 3.58388C4.08714 3.69137 3.91286 3.69137 3.80537 3.58388L1.08062 0.859119Z" fill="#494B49"/>
<path d="M3.80537 2.41612C3.91286 2.30863 4.08714 2.30863 4.19463 2.41612L4.58388 2.80537C4.69137 2.91286 4.69137 3.08714 4.58388 3.19463L1.85912 5.91938C1.75163 6.02687 1.57736 6.02687 1.46987 5.91938L1.08062 5.53013C0.973128 5.42264 0.973128 5.24837 1.08062 5.14088L3.80537 2.41612Z" fill="#494B49"/>
</svg>
