<svg width="16" height="17" viewBox="0 0 16 17" fill="none" xmlns="http://www.w3.org/2000/svg">
<path d="M5.59619 4.61091C5.40093 4.41565 5.40093 4.09907 5.59619 3.90381L6.3033 3.1967C6.49856 3.00144 6.81515 3.00144 7.01041 3.1967L11.9602 8.14645C12.1554 8.34171 12.1554 8.65829 11.9602 8.85355L11.253 9.56066C11.0578 9.75592 10.7412 9.75592 10.5459 9.56066L5.59619 4.61091Z" fill="#1873EB"/>
<path d="M10.5459 7.43934C10.7412 7.24408 11.0578 7.24408 11.253 7.43934L11.9602 8.14645C12.1554 8.34171 12.1554 8.65829 11.9602 8.85355L7.01041 13.8033C6.81515 13.9986 6.49856 13.9986 6.3033 13.8033L5.59619 13.0962C5.40093 12.9009 5.40093 12.5843 5.59619 12.3891L10.5459 7.43934Z" fill="#1873EB"/>
</svg>
