<svg width="10" height="9" viewBox="0 0 10 9" fill="none" xmlns="http://www.w3.org/2000/svg">
<path d="M9.84015 4.88807L6.2288 8.49951C6.12572 8.60259 5.98832 8.65918 5.84182 8.65918C5.69515 8.65918 5.55784 8.60251 5.45475 8.49951L5.12686 8.17154C5.02386 8.06862 4.96711 7.93114 4.96711 7.78455C4.96711 7.63805 5.02386 7.49594 5.12686 7.39301L7.23367 5.28157L0.540239 5.28157C0.238453 5.28157 0 5.04531 0 4.74344L0 4.27979C0 3.97792 0.238453 3.71784 0.540239 3.71784L7.25758 3.71784L5.12694 1.59461C5.02394 1.49152 4.96719 1.35778 4.96719 1.21119C4.96719 1.06477 5.02394 0.929082 5.12694 0.826076L5.45483 0.499167C5.55792 0.396079 5.69523 0.339901 5.8419 0.339901C5.9884 0.339901 6.1258 0.396811 6.22889 0.499899L9.84023 4.11125C9.94357 4.21466 10.0004 4.35271 9.99999 4.49946C10.0003 4.64669 9.94357 4.78482 9.84015 4.88807Z" fill="#4F4F4F"/>
</svg>
