<svg width="130" height="43" viewBox="0 0 130 43" fill="none" xmlns="http://www.w3.org/2000/svg">
<g clip-path="url(#clip0_1_2047)">
<path d="M63.869 42.3987V24.3691H68.861V42.4117H63.869V42.3987Z" fill="#71B219"/>
<path d="M72.748 33.3907C72.748 32.141 72.995 30.8913 73.502 29.7457C73.983 28.6262 74.672 27.6108 75.53 26.7516C76.414 25.8925 77.467 25.2025 78.624 24.7469C81.094 23.7575 83.85 23.7575 86.32 24.7469C87.464 25.2025 88.504 25.8794 89.388 26.7386C90.246 27.5848 90.922 28.6001 91.39 29.7197C91.884 30.8782 92.131 32.1279 92.131 33.3907C92.144 34.6404 91.884 35.8901 91.39 37.0356C90.909 38.1551 90.22 39.1705 89.362 40.0297C88.478 40.8889 87.425 41.5658 86.281 42.0214C83.421 43.167 80.197 42.9717 77.48 41.5007C74.529 39.8865 72.709 36.7622 72.748 33.3907ZM77.87 33.3907C77.844 34.6664 78.312 35.8901 79.183 36.8273C80.015 37.7646 81.224 38.2983 82.485 38.2593C83.837 38.2593 84.942 37.7906 85.787 36.8404C87.503 34.8617 87.49 31.9066 85.761 29.941C84.916 28.9907 83.707 28.47 82.433 28.509C81.185 28.47 79.976 28.9907 79.144 29.9279C78.286 30.8782 77.831 32.1149 77.87 33.3907Z" fill="#71B219"/>
<path d="M96.434 42.3987V24.3691H101.101L108.498 33.9111V24.3691H113.438V42.4117H109.07L101.374 32.5312V42.4117H96.434V42.3987Z" fill="#71B219"/>
<path d="M31.33 30.9301V34.6141C31.33 35.8638 31.031 36.8011 30.446 37.4259C29.861 38.0508 29.029 38.3632 27.976 38.3632C26.923 38.3632 26.104 38.0377 25.519 37.3869C24.921 36.736 24.635 35.7727 24.635 34.4969V24.3691H19.539V34.5881C19.539 37.3738 20.28 39.4567 21.749 40.8366C23.218 42.2164 25.285 42.9064 27.937 42.9064C29.12 42.9194 30.316 42.7502 31.447 42.3987C32.435 42.0863 33.345 41.5786 34.125 40.8886C34.905 40.1596 35.503 39.2614 35.841 38.246C36.257 37.0224 36.465 35.7466 36.439 34.4449V30.9171L31.33 30.9301Z" fill="#71B219"/>
<path d="M36.387 24.3691H31.304V29.4591H36.387V24.3691Z" fill="#539100"/>
<path d="M6.565 0.325195V4.77726V18.5891H11.609V4.77726H17.095V0.325195H6.565Z" fill="#71B219"/>
<path d="M5.083 0.325195H-0.0130005V5.42814H5.083V0.325195Z" fill="#539100"/>
<path d="M41.47 42.3987V24.3691H46.137L53.534 33.9111V24.3691H58.461V42.4117H54.106L46.41 32.5312V42.4117H41.47V42.3987Z" fill="#71B219"/>
<path d="M19.019 18.3684V0.182617H27.586C30.225 0.182617 32.188 0.833503 33.488 2.14829C34.554 3.22876 35.087 4.67373 35.087 6.48319C35.087 7.811 34.762 8.94354 34.112 9.8678C33.423 10.8181 32.474 11.5601 31.382 12.0027L35.711 18.3684H29.913L26.247 12.8489H24.05V18.3814L19.019 18.3684ZM24.05 8.91751H27.378C28.236 8.91751 28.899 8.72224 29.367 8.33171C29.848 7.94118 30.108 7.34236 30.082 6.73053C30.082 6.04059 29.848 5.50686 29.367 5.15539C28.886 4.79089 28.223 4.60864 27.365 4.60864H24.05V8.91751Z" fill="#71B219"/>
<path d="M36.53 18.368L44.2 0.195312H49.01L56.68 18.368H51.324L50.011 15.1527H43.082L41.795 18.368H36.53ZM44.538 11.2604H48.581L46.566 6.13139L44.538 11.2604Z" fill="#71B219"/>
<path d="M58.89 18.3678V0.3252H65.845C67.301 0.299164 68.757 0.533483 70.135 0.989103C71.318 1.37963 72.41 2.00449 73.333 2.83762C74.191 3.6317 74.854 4.60803 75.309 5.67548C75.777 6.82104 76.011 8.05772 75.998 9.30743C76.011 10.5441 75.777 11.7678 75.296 12.9133C74.841 13.9938 74.165 14.9832 73.307 15.7772C72.371 16.6234 71.266 17.2743 70.07 17.6778C68.679 18.1465 67.21 18.3808 65.741 18.3678H58.89ZM63.882 13.9808H65.91C67.431 13.9808 68.627 13.5772 69.524 12.7571C70.421 11.95 70.863 10.8045 70.863 9.33346C70.863 7.90151 70.408 6.76897 69.511 5.94885C68.614 5.12874 67.405 4.71217 65.897 4.71217H63.869V13.9808H63.882Z" fill="#71B219"/>
<path d="M79.027 18.3678V0.325195H93.509V4.58199H83.967V7.31571H92.612V11.2601H83.967V14.111H93.639V18.3678H79.027Z" fill="#71B219"/>
<path d="M96.603 18.4332V0.273438H105.157C107.796 0.273438 109.759 0.924323 111.046 2.23911C112.112 3.31958 112.645 4.76455 112.645 6.57401C112.645 7.90182 112.32 9.03436 111.67 9.95862C110.981 10.9089 110.032 11.6509 108.94 12.0935L113.269 18.4462H107.471L103.818 12.9267H101.621V18.4462L96.603 18.4332ZM101.621 8.99531H104.936C105.794 8.99531 106.444 8.80004 106.925 8.40951C107.406 8.01898 107.666 7.42016 107.627 6.80833C107.627 6.11839 107.393 5.58467 106.912 5.23319C106.431 4.86869 105.768 4.68644 104.91 4.68644H101.621V8.99531Z" fill="#71B219"/>
<path d="M114.257 15.6864L117.039 12.3668C118.846 13.8118 120.796 14.5278 122.889 14.5278C123.552 14.5278 124.059 14.4106 124.41 14.1893C124.748 13.9941 124.956 13.6165 124.93 13.226C124.93 12.8355 124.722 12.5231 124.306 12.2887C123.89 12.0414 123.097 11.781 121.901 11.5077C121.29 11.3645 120.757 11.2343 120.315 11.1171C119.86 11 119.392 10.8438 118.885 10.6615C118.443 10.5053 118.001 10.31 117.598 10.0887C117.234 9.88046 116.883 9.63312 116.558 9.35975C116.246 9.09939 115.973 8.78697 115.752 8.43549C115.531 8.07099 115.375 7.68046 115.271 7.27691C115.141 6.79526 115.089 6.3136 115.089 5.81893C115.05 4.21775 115.739 2.68166 116.987 1.65326C118.248 0.585807 119.951 0.0390625 122.083 0.0390625C125.034 0.0390625 127.504 0.833143 129.493 2.43432L126.984 5.96212C125.307 4.77751 123.617 4.19171 121.953 4.19171C121.368 4.19171 120.926 4.30887 120.614 4.53018C120.315 4.72544 120.146 5.05088 120.146 5.40236C120.146 5.81893 120.393 6.19644 120.77 6.37869C121.186 6.61301 122.018 6.87336 123.253 7.15975C124.202 7.35502 125.151 7.62839 126.061 7.95384C126.802 8.22721 127.504 8.5917 128.141 9.04732C128.726 9.45087 129.207 9.99762 129.519 10.6355C129.831 11.3254 129.987 12.0805 129.974 12.8355C129.974 14.658 129.311 16.0899 127.985 17.1443C126.659 18.1988 124.891 18.7195 122.681 18.7195C121.108 18.7325 119.548 18.4722 118.053 17.9645C116.662 17.4438 115.362 16.6757 114.257 15.6864Z" fill="#71B219"/>
</g>
<defs>
<clipPath id="clip0_1_2047">
<rect width="130" height="42.9064" fill="white"/>
</clipPath>
</defs>
</svg>
